HIERARCHY
ROOT root
{
  OFFSET 0 93.2929 0
  CHANNELS 6 Xposition Yposition Zposition Zrotation Xrotation Yrotation
  JOINT torso_1
  {
    OFFSET 0 5.07867 -1.15138
    CHANNELS 6 Xposition Yposition Zposition Zrotation Xrotation Yrotation
    JOINT torso_2
    {
      OFFSET 0 5.61661 1.07143
      CHANNELS 6 Xposition Yposition Zposition Zrotation Xrotation Yrotation
      JOINT torso_3
      {
        OFFSET -1.02604e-17 5.98978 0.11501
        CHANNELS 6 Xposition Yposition Zposition Zrotation Xrotation Yrotation
        JOINT torso_4
        {
          OFFSET -1.10457e-17 6.50583 -0.443523
          CHANNELS 6 Xposition Yposition Zposition Zrotation Xrotation Yrotation
          JOINT torso_5
          {
            OFFSET -1.97295e-17 7.60548 -1.50593
            CHANNELS 6 Xposition Yposition Zposition Zrotation Xrotation Yrotation
            JOINT torso_6
            {
              OFFSET -2.53307e-17 9.49737 -0.914492
              CHANNELS 6 Xposition Yposition Zposition Zrotation Xrotation Yrotation
              JOINT torso_7
              {
                OFFSET -2.90401e-17 10.5513 1.57691
                CHANNELS 6 Xposition Yposition Zposition Zrotation Xrotation Yrotation
                JOINT neck_1
                {
                  OFFSET -1.29193e-17 4.78644 0.715339
                  CHANNELS 6 Xposition Yposition Zposition Zrotation Xrotation Yrotation
                  JOINT neck_2
                  {
                    OFFSET -1.8116e-17 4.82109 0.421791
                    CHANNELS 6 Xposition Yposition Zposition Zrotation Xrotation Yrotation
                    JOINT head
                    {
                      OFFSET -2.00958e-17 4.83041 0.765062
                      CHANNELS 6 Xposition Yposition Zposition Zrotation Xrotation Yrotation
                      End Site
                      {
                        OFFSET 0 0.1 0
                      }
                    }
                  }
                }
                JOINT l_shoulder
                {
                  OFFSET 1.23299 -7.60731 7.53374
                  CHANNELS 6 Xposition Yposition Zposition Zrotation Xrotation Yrotation
                  JOINT l_up_arm
                  {
                    OFFSET 12.9547 3.2495 -3.26872
                    CHANNELS 6 Xposition Yposition Zposition Zrotation Xrotation Yrotation
                    JOINT l_low_arm
                    {
                      OFFSET 29.2081 0.0598081 0.137039
                      CHANNELS 6 Xposition Yposition Zposition Zrotation Xrotation Yrotation
                      JOINT l_hand
                      {
                        OFFSET 24.234 0.0496219 0.113701
                        CHANNELS 6 Xposition Yposition Zposition Zrotation Xrotation Yrotation
                        End Site
                        {
                          OFFSET 0.1 0 0
                        }
                      }
                    }
                  }
                }
                JOINT r_shoulder
                {
                  OFFSET -1.23299 -7.60729 7.53365
                  CHANNELS 6 Xposition Yposition Zposition Zrotation Xrotation Yrotation
                  JOINT r_up_arm
                  {
                    OFFSET -12.9547 3.2495 -3.26872
                    CHANNELS 6 Xposition Yposition Zposition Zrotation Xrotation Yrotation
                    JOINT r_low_arm
                    {
                      OFFSET -29.2081 0.0598081 0.137039
                      CHANNELS 6 Xposition Yposition Zposition Zrotation Xrotation Yrotation
                      JOINT r_hand
                      {
                        OFFSET -24.234 0.0496218 0.113702
                        CHANNELS 6 Xposition Yposition Zposition Zrotation Xrotation Yrotation
                        End Site
                        {
                          OFFSET -0.1 0 0
                        }
                      }
                    }
                  }
                }
              }
            }
          }
        }
      }
    }
  }
  JOINT l_up_leg
  {
    OFFSET 9.23673 -4.20556 2.0327
    CHANNELS 6 Xposition Yposition Zposition Zrotation Xrotation Yrotation
    JOINT l_low_leg
    {
      OFFSET -0.852353 -38.7721 -0.655187
      CHANNELS 6 Xposition Yposition Zposition Zrotation Xrotation Yrotation
      JOINT l_foot
      {
        OFFSET -2.32622 -40.4017 -6.04875
        CHANNELS 6 Xposition Yposition Zposition Zrotation Xrotation Yrotation
        JOINT l_toes
        {
          OFFSET 0.779096 -9.8844 12.4959
          CHANNELS 6 Xposition Yposition Zposition Zrotation Xrotation Yrotation
          End Site
          {
            OFFSET 0 0 0.1
          }
        }
      }
    }
  }
  JOINT r_up_leg
  {
    OFFSET -9.23673 -4.20556 2.0327
    CHANNELS 6 Xposition Yposition Zposition Zrotation Xrotation Yrotation
    JOINT r_low_leg
    {
      OFFSET 0.852353 -38.7721 -0.655187
      CHANNELS 6 Xposition Yposition Zposition Zrotation Xrotation Yrotation
      JOINT r_foot
      {
        OFFSET 2.32622 -40.4017 -6.04875
        CHANNELS 6 Xposition Yposition Zposition Zrotation Xrotation Yrotation
        JOINT r_toes
        {
          OFFSET -0.779096 -9.8844 12.4959
          CHANNELS 6 Xposition Yposition Zposition Zrotation Xrotation Yrotation
          End Site
          {
            OFFSET 0 0 0.1
          }
        }
      }
    }
  }
}
MOTION
Frames: 5
Frame Time: 0.016667
0 93.2929 0 -0 0 -0 0 5.07867 -1.15138 -0 0 -0 0 5.61661 1.07143 -0 0 -0 -1.02604e-17 5.98978 0.11501 -0 0 -0 -1.10457e-17 6.50583 -0.443523 -0 0 -0 -1.97295e-17 7.60548 -1.50593 -0 0 -0 -2.53307e-17 9.49737 -0.914492 -0 0 -0 -2.90401e-17 10.5513 1.57691 -0 0 -0 -1.29193e-17 4.78644 0.715339 -0 0 -0 -1.8116e-17 4.82109 0.421791 -0 0 -0 -2.00958e-17 4.83041 0.765062 -0 0 -0 1.23299 -7.60731 7.53374 -0 0 -0 12.9547 3.2495 -3.26872 -0 0 -0 29.2081 0.0598081 0.137039 -0 0 -0 24.234 0.0496219 0.113701 -0 0 -0 -1.23299 -7.60729 7.53365 -0 0 -0 -12.9547 3.2495 -3.26872 -0 0 -0 -29.2081 0.0598081 0.137039 -0 0 -0 -24.234 0.0496218 0.113702 -0 0 -0 9.23673 -4.20556 2.0327 -0 0 -0 -0.852353 -38.7721 -0.655187 -0 0 -0 -2.32622 -40.4017 -6.04875 -0 0 -0 0.779096 -9.8844 12.4959 -0 0 -0 -9.23673 -4.20556 2.0327 -0 0 -0 0.852353 -38.7721 -0.655187 -0 0 -0 2.32622 -40.4017 -6.04875 -0 0 -0 -0.779096 -9.8844 12.4959 -0 0 -0 
10.0213 91.6557 59.1166 9.23859 -8.24495 0.655607 0 5.07867 -1.15138 -3.40852 3.59694 0.434468 0 5.61661 1.07143 -2.70267 2.78608 0.0704343 -1.02604e-17 5.98978 0.11501 -2.05774 2.27533 0.139695 -1.10457e-17 6.50583 -0.443523 -1.36978 0.754334 0.132603 -1.97295e-17 7.60548 -1.50593 -0.607871 0.153065 0.256139 -2.53307e-17 9.49737 -0.914492 0.224322 -0.865653 -0.0453827 -2.90401e-17 10.5513 1.57691 -0.0334826 0.914672 -0.10273 -1.29193e-17 4.78644 0.715339 0.666952 8.35998 -2.1747 -1.8116e-17 4.82109 0.421791 1.03698 -2.51713 -1.14193 -2.00958e-17 4.83041 0.765062 0.0262929 -5.08522 -0.866525 1.23299 -7.60731 7.53374 12.4471 3.31729 2.73749 12.9547 3.2495 -3.26872 -97.0114 25.8792 8.30673 29.2081 0.0598081 0.137039 4.20621 -0.745594 -20.6874 24.234 0.0496219 0.113701 -3.2845 -15.1273 -1.05529 -1.23299 -7.60729 7.53365 -12.4409 3.32548 -3.40039 -12.9547 3.2495 -3.26872 99.9304 26.8544 -12.2588 -29.2081 0.0598081 0.137039 -4.88536 -1.02196 24.2107 -24.234 0.0496218 0.113702 4.12476 -23.03 1.31414 9.23673 -4.20556 2.0327 -8.59851 3.38225 -15.2227 -0.852353 -38.7721 -0.655187 -0.748269 2.79462 -0.0305341 -2.32622 -40.4017 -6.04875 -1.16822 1.59731 15.1223 0.779096 -9.8844 12.4959 8.18555e-16 -7.57956e-16 -2.47586e-17 -9.23673 -4.20556 2.0327 -8.48267 -4.92788 19.4236 0.852353 -38.7721 -0.655187 2.78646 10.3457 -0.0711985 2.32622 -40.4017 -6.04875 -1.8885 -6.01907 -15.2376 -0.779096 -9.8844 12.4959 -1.39149e-15 -5.34234e-16 -1.27098e-14 
9.98999 91.6625 59.1071 9.23003 -8.30125 0.545034 0 5.07867 -1.15138 -3.45782 3.47994 0.432278 0 5.61661 1.07143 -2.73909 2.72252 0.0489245 -1.02604e-17 5.98978 0.11501 -2.08036 2.27261 0.117479 -1.10457e-17 6.50583 -0.443523 -1.38491 0.8472 0.110663 -1.97295e-17 7.60548 -1.50593 -0.617373 0.271303 0.238138 -2.53307e-17 9.49737 -0.914492 0.22153 -0.680534 -0.0647523 -2.90401e-17 10.5513 1.57691 -0.0367998 0.907404 -0.0994816 -1.29193e-17 4.78644 0.715339 0.627363 8.05832 -2.09019 -1.8116e-17 4.82109 0.421791 1.00695 -2.57837 -1.10701 -2.00958e-17 4.83041 0.765062 0.213833 -5.09115 -0.61633 1.23299 -7.60731 7.53374 11.5262 3.24388 2.60808 12.9547 3.2495 -3.26872 -96.0554 25.7689 7.96153 29.2081 0.0598081 0.137039 4.16594 -0.73071 -20.481 24.234 0.0496219 0.113701 -3.06514 -15.4259 -1.17522 -1.23299 -7.60729 7.53365 -11.4349 3.2531 -3.20121 -12.9547 3.2495 -3.26872 99.2903 26.6402 -11.669 -29.2081 0.0598081 0.137039 -4.78312 -0.977199 23.6745 -24.234 0.0496218 0.113702 3.85418 -22.79 1.37946 9.23673 -4.20556 2.0327 -8.56875 3.42889 -15.1932 -0.852353 -38.7721 -0.655187 -0.741984 2.77114 -0.0304295 -2.32622 -40.4017 -6.04875 -1.22154 1.6222 15.1351 0.779096 -9.8844 12.4959 2.0084e-15 -7.08349e-16 -7.43653e-17 -9.23673 -4.20556 2.0327 -8.43822 -5.03708 19.5561 0.852353 -38.7721 -0.655187 2.83091 10.508 -0.0764087 2.32622 -40.4017 -6.04875 -1.96404 -5.89993 -15.2251 -0.779096 -9.8844 12.4959 -2.57991e-15 -4.84717e-16 -1.26603e-14 
9.95261 91.7014 59.0696 9.26774 -8.55275 0.479306 0 5.07867 -1.15138 -3.48305 3.39645 0.447778 0 5.61661 1.07143 -2.76095 2.67914 0.0568546 -1.02604e-17 5.98978 0.11501 -2.09628 2.27803 0.125196 -1.10457e-17 6.50583 -0.443523 -1.39585 0.940425 0.118443 -1.97295e-17 7.60548 -1.50593 -0.621973 0.384058 0.248572 -2.53307e-17 9.49737 -0.914492 0.229256 -0.536645 -0.0543468 -2.90401e-17 10.5513 1.57691 -0.0358935 0.899034 -0.100017 -1.29193e-17 4.78644 0.715339 0.629952 8.08479 -2.06372 -1.8116e-17 4.82109 0.421791 1.07056 -2.68324 -1.09591 -2.00958e-17 4.83041 0.765062 0.192904 -5.21703 -0.492744 1.23299 -7.60731 7.53374 11.3095 3.12525 2.6281 12.9547 3.2495 -3.26872 -95.6007 25.8481 7.57249 29.2081 0.0598081 0.137039 4.11042 -0.71046 -20.1968 24.234 0.0496219 0.113701 -3.20232 -15.5811 -1.17054 -1.23299 -7.60729 7.53365 -11.1773 3.14258 -3.1916 -12.9547 3.2495 -3.26872 98.9582 26.4362 -11.2494 -29.2081 0.0598081 0.137039 -4.6948 -0.939445 23.213 -24.234 0.0496218 0.113702 3.99935 -22.6417 1.42415 9.23673 -4.20556 2.0327 -8.58288 3.62006 -15.2762 -0.852353 -38.7721 -0.655187 -0.739271 2.76101 -0.0303836 -2.32622 -40.4017 -6.04875 -1.28253 1.88456 15.1366 0.779096 -9.8844 12.4959 8.24281e-16 -7.57688e-16 -2.5027e-17 -9.23673 -4.20556 2.0327 -8.43752 -4.98374 19.6342 0.852353 -38.7721 -0.655187 2.87985 10.6865 -0.0822919 2.32622 -40.4017 -6.04875 -1.9758 -5.63677 -15.2077 -0.779096 -9.8844 12.4959 -9.99649e-16 -5.46434e-16 -1.2722e-14 
9.91798 91.7625 59.0174 9.3315 -8.93732 0.498451 0 5.07867 -1.15138 -3.51335 3.39362 0.467734 0 5.61661 1.07143 -2.78616 2.69716 0.0722745 -1.02604e-17 5.98978 0.11501 -2.11652 2.33154 0.139459 -1.10457e-17 6.50583 -0.443523 -1.40974 1.05319 0.132678 -1.97295e-17 7.60548 -1.50593 -0.628301 0.503297 0.265866 -2.53307e-17 9.49737 -0.914492 0.237313 -0.398253 -0.0367825 -2.90401e-17 10.5513 1.57691 -0.0331022 0.889597 -0.103211 -1.29193e-17 4.78644 0.715339 0.643013 8.28362 -2.10091 -1.8116e-17 4.82109 0.421791 1.14164 -2.94234 -1.11241 -2.00958e-17 4.83041 0.765062 0.199671 -5.47623 -0.388439 1.23299 -7.60731 7.53374 11.4433 3.01654 2.69599 12.9547 3.2495 -3.26872 -95.6105 26.2232 7.27997 29.2081 0.0598081 0.137039 4.07573 -0.697964 -20.0195 24.234 0.0496219 0.113701 -3.18733 -15.8146 -1.13219 -1.23299 -7.60729 7.53365 -11.2569 3.01755 -3.24687 -12.9547 3.2495 -3.26872 98.8927 26.4499 -10.9757 -29.2081 0.0598081 0.137039 -4.62051 -0.908335 22.826 -24.234 0.0496218 0.113702 4.20036 -22.7666 1.60323 9.23673 -4.20556 2.0327 -8.60882 3.91281 -15.5548 -0.852353 -38.7721 -0.655187 -0.741405 2.76898 -0.0304198 -2.32622 -40.4017 -6.04875 -1.42193 2.28075 15.137 0.779096 -9.8844 12.4959 2.77107e-17 -7.95004e-16 1.22899e-17 -9.23673 -4.20556 2.0327 -8.46762 -4.76393 19.684 0.852353 -38.7721 -0.655187 2.9142 10.8117 -0.086513 2.32622 -40.4017 -6.04875 -1.91847 -5.27702 -15.193 -0.779096 -9.8844 12.4959 1.94491e-16 -5.96175e-16 -1.27717e-14 
